<svg xmlns="http://www.w3.org/2000/svg" viewBox="0 0 100 51.66">
  <defs>
    <style>
      .cls-1 {
        fill: #ebf3fa;
      }

      .cls-2 {
        fill: #a8d29f;
      }

      .cls-3 {
        fill: #82b378;
      }

      .cls-4 {
        fill: #ed7d2b;
      }

      .cls-5 {
        fill: #c7dcfb;
      }

      .cls-6 {
        fill: #dfebfd;
      }

      .cls-7 {
        fill: #78acea;
      }

      .cls-8 {
        fill: #699dee;
      }

      .cls-9 {
        fill: #5288d8;
      }

      .cls-10 {
        fill: #d7e9ff;
      }

      .cls-11 {
        fill: #f99746;
      }

      .cls-12 {
        fill: #afcdfb;
      }

      .cls-13 {
        fill: #fff;
      }

      .cls-14 {
        fill: #c65447;
      }

      .cls-15 {
        fill: #ffb27d;
      }

      .cls-16 {
        fill: #233862;
      }

      .cls-17 {
        fill: #2b478b;
      }

      .cls-18 {
        fill: #ed985f;
      }

      .cls-19 {
        fill: #2c3a64;
      }

      .cls-20 {
        fill: #2e3552;
      }
    </style>
  </defs>
  <g id="Layer_2" data-name="Layer 2">
    <g id="Слой_1" data-name="Слой 1">
      <g>
        <path class="cls-1" d="M7.62,51.63S-3.84,39.33,5.68,26C14.13,14.2,24,15,31.2,19.8c3.08,2,12,.25,19.5-11.77C61-8.37,96.7,1.57,90.19,26.8,87,39,99.78,39.45,93.29,51.66Z"/>
        <path class="cls-2" d="M29.62,27.85s-5.66-8.07-7.88-7S29.62,27.85,29.62,27.85Z"/>
        <path class="cls-2" d="M29.26,25.68S28.4,19.62,27,19.85,29.26,25.68,29.26,25.68Z"/>
        <g>
          <path class="cls-3" d="M24.47,44.59s.55-2.7-1.57-3a4.79,4.79,0,0,0-2.28.49s2.4,1.39,2.12,1.82-2.57-1.74-2.57-1.74-2.57,1.13-3.14,2c0,0,3,.54,2.65.88s-3.57-.07-3.57-.07-2,1.66-1.16,3,1.92,1.31,2.24,1.08,1.91-2.12,2.11-1.87-.5,1.86-1.32,2.38c0,0,2.59.87,3.37-.24s.42-2,.91-2.63,1.06-1,1-.53-1.13,1.43-1.14,2.31-.09,1.53.92.75,2.35-2.59,1.91-3.55Z"/>
          <g>
            <path class="cls-3" d="M16.09,47.27s6-3.68,8.38-2.68a5.22,5.22,0,0,0,2.19,1l.37.31a6.89,6.89,0,0,0-2.12-.38S24.29,43,16.09,47.27Z"/>
            <path class="cls-3" d="M26.66,45.63a4.44,4.44,0,0,1,2.94,1.94l-.22.15a7.22,7.22,0,0,0-2.6-1.85C25.62,45.59,26.66,45.63,26.66,45.63Z"/>
          </g>
        </g>
        <g>
          <path class="cls-2" d="M26.32,36.71s4.38-2.45,2.34-5.78a8.68,8.68,0,0,0-3.39-2.57s.93,5,0,5.08-.65-5.61-.65-5.61-4.61-2.22-6.42-2c0,0,2.86,4.85,1.92,4.73s-4.14-5-4.14-5-4.74-.87-5.5,1.93.47,4.21,1.17,4.38,5.2.12,5.09.71-3.16,1.52-4.86,1c0,0,1.87,4.62,4.33,4.38s3.21-1.75,4.73-1.87,2.63.29,1.87.7-3.33.14-4.56,1.18-2.22,1.69.06,2.16,6.37.17,7.19-1.58Z"/>
          <g>
            <path class="cls-3" d="M12.64,28.3s12.28,4,13.68,8.41A9.3,9.3,0,0,0,27.49,41v.88s-1.29-3-2-3.39C25.5,38.47,28.25,34.61,12.64,28.3Z"/>
            <path class="cls-3" d="M27.49,41a8.09,8.09,0,0,1,.81,6.37l-.49-.13s.48-3.85-.51-5.79S27.49,41,27.49,41Z"/>
          </g>
        </g>
        <path class="cls-4" d="M30.77,16.18l-6.55,33.9a1.11,1.11,0,0,0,1.09,1.33h3.46Z"/>
        <g>
          <path class="cls-5" d="M74.37,25.88s-3-1.88-1.4-4.11a6.1,6.1,0,0,1,2.46-1.66s-.85,3.42-.2,3.54.67-3.88.67-3.88,3.3-1.36,4.55-1.16c0,0-2.18,3.26-1.53,3.21S82,18.49,82,18.49s3.32-.42,3.74,1.56-.49,2.91-1,3-3.62-.13-3.56.28,2.13,1.18,3.33.88c0,0-1.48,3.14-3.18,2.88s-2.17-1.35-3.22-1.49-1.84.1-1.33.41,2.32.23,3.13,1,1.47,1.27-.13,1.5-4.44-.13-4.93-1.38Z"/>
          <g>
            <path class="cls-5" d="M84.21,20.58s-8.69,2.27-9.84,5.3a6.46,6.46,0,0,1-1,2.92l0,.61s1-2,1.52-2.27C74.87,27.14,73.11,24.34,84.21,20.58Z"/>
            <path class="cls-5" d="M73.38,28.8a5.65,5.65,0,0,0-.82,4.4l.35-.07s-.18-2.7.59-4S73.38,28.8,73.38,28.8Z"/>
          </g>
        </g>
        <g>
          <path class="cls-6" d="M66.42,17.72s-4.53-1-3.61-4.49a8.06,8.06,0,0,1,2.3-3.18s.51,4.64,1.37,4.49-.94-5.13-.94-5.13S69,6.21,70.68,5.88c0,0-1.24,5.05-.44,4.7S72.56,5,72.56,5s4-2,5.37.24.72,3.84.15,4.19-4.57,1.49-4.31,2,3.2.5,4.55-.42c0,0-.41,4.58-2.65,5s-3.31-.69-4.68-.39-2.25,1-1.47,1.13,3-.78,4.35-.18,2.41.89.52,1.91-5.58,1.87-6.77.54Z"/>
          <g>
            <path class="cls-6" d="M76.26,6.61s-9.79,6.8-9.84,11.11a8.51,8.51,0,0,1,.11,4.08l.24.77s.34-3,.85-3.52C67.62,19.05,64.16,16.37,76.26,6.61Z"/>
            <path class="cls-6" d="M66.53,21.8a7.48,7.48,0,0,0,1,5.85l.4-.24s-1.45-3.28-1.1-5.26S66.53,21.8,66.53,21.8Z"/>
          </g>
        </g>
        <path class="cls-7" d="M30.85,16,26.51,49.33a1.84,1.84,0,0,0,1.82,2.08h6.38L31.12,15.92Z"/>
        <path class="cls-8" d="M30.85,16,28.91,49.12a2.16,2.16,0,0,0,2.16,2.29h9.51Z"/>
        <path class="cls-9" d="M30.78,16.31l.95,32.81a2.16,2.16,0,0,0,2.16,2.29H43.4Z"/>
        <path class="cls-10" d="M76.31,51.41H38.81a1.94,1.94,0,0,1-1.9-1.59L31.2,18.62a2.3,2.3,0,0,1,2.27-2.72H70.53a1.93,1.93,0,0,1,1.9,1.59l5.79,31.63A1.94,1.94,0,0,1,76.31,51.41Z"/>
        <path class="cls-11" d="M31.94,22.67H73.41l-1.06-5.89a1.08,1.08,0,0,0-1.06-.88H31.13a.35.35,0,0,0-.35.41Z"/>
        <g>
          <g>
            <path class="cls-7" d="M32.91,14.12a1.8,1.8,0,0,0-1.79,1.8h.34a1.46,1.46,0,0,1,2.91,0,1.39,1.39,0,0,1-.08.46,1.43,1.43,0,0,1-.9.91,1.36,1.36,0,0,1-.39.08v.35a1.84,1.84,0,0,0,1.65-1.34,1.76,1.76,0,0,0,.06-.46A1.81,1.81,0,0,0,32.91,14.12Z"/>
            <path class="cls-7" d="M33.47,17.53s0,.07,0,.1a.4.4,0,0,1-.38.29.39.39,0,0,1-.39-.39.4.4,0,0,1,.39-.39.39.39,0,0,1,.31.15A.41.41,0,0,1,33.47,17.53Z"/>
          </g>
          <g>
            <path class="cls-7" d="M39.36,14.12a1.81,1.81,0,0,0-1.8,1.8h.35a1.45,1.45,0,0,1,2.9,0,1.39,1.39,0,0,1-.07.46,1.45,1.45,0,0,1-.91.91,1.23,1.23,0,0,1-.39.08v.35a1.86,1.86,0,0,0,1.66-1.34,1.76,1.76,0,0,0,.06-.46A1.81,1.81,0,0,0,39.36,14.12Z"/>
            <path class="cls-7" d="M39.91,17.53a.31.31,0,0,1,0,.1.39.39,0,0,1-.37.29.38.38,0,0,1-.39-.39.39.39,0,0,1,.39-.39.38.38,0,0,1,.3.15A.41.41,0,0,1,39.91,17.53Z"/>
          </g>
          <g>
            <path class="cls-7" d="M45.8,14.12A1.8,1.8,0,0,0,44,15.92h.34a1.46,1.46,0,0,1,2.91,0,1.39,1.39,0,0,1-.08.46,1.43,1.43,0,0,1-.9.91,1.29,1.29,0,0,1-.39.08v.35a1.84,1.84,0,0,0,1.65-1.34,1.76,1.76,0,0,0,.06-.46A1.8,1.8,0,0,0,45.8,14.12Z"/>
            <path class="cls-7" d="M46.36,17.53s0,.07,0,.1a.4.4,0,0,1-.38.29.39.39,0,0,1-.39-.39.4.4,0,0,1,.39-.39.39.39,0,0,1,.31.15A.41.41,0,0,1,46.36,17.53Z"/>
          </g>
          <g>
            <path class="cls-7" d="M52.25,14.12a1.81,1.81,0,0,0-1.8,1.8h.35a1.45,1.45,0,0,1,2.9,0,1.39,1.39,0,0,1-.07.46,1.45,1.45,0,0,1-.91.91,1.23,1.23,0,0,1-.39.08v.35a1.71,1.71,0,0,0,.46-.09A1.8,1.8,0,0,0,54,16.38a1.76,1.76,0,0,0,.06-.46A1.81,1.81,0,0,0,52.25,14.12Z"/>
            <path class="cls-7" d="M52.81,17.53a.3.3,0,0,1,0,.1.39.39,0,0,1-.76-.1.39.39,0,0,1,.39-.39.38.38,0,0,1,.3.15A.36.36,0,0,1,52.81,17.53Z"/>
          </g>
          <g>
            <path class="cls-7" d="M58.69,14.12a1.8,1.8,0,0,0-1.79,1.8h.34a1.46,1.46,0,0,1,2.91,0,1.39,1.39,0,0,1-.08.46,1.43,1.43,0,0,1-.9.91,1.29,1.29,0,0,1-.39.08v.35a1.79,1.79,0,0,0,.46-.09,1.79,1.79,0,0,0,1.25-1.71A1.8,1.8,0,0,0,58.69,14.12Z"/>
            <path class="cls-7" d="M59.25,17.53s0,.07,0,.1a.4.4,0,0,1-.38.29.39.39,0,0,1-.39-.39.4.4,0,0,1,.39-.39.39.39,0,0,1,.31.15A.41.41,0,0,1,59.25,17.53Z"/>
          </g>
          <g>
            <path class="cls-7" d="M65.14,14.12a1.81,1.81,0,0,0-1.8,1.8h.35a1.45,1.45,0,0,1,2.9,0,1.39,1.39,0,0,1-.07.46,1.45,1.45,0,0,1-.91.91,1.23,1.23,0,0,1-.39.08v.35a1.71,1.71,0,0,0,.46-.09,1.8,1.8,0,0,0,1.2-1.25,1.76,1.76,0,0,0,.06-.46A1.81,1.81,0,0,0,65.14,14.12Z"/>
            <path class="cls-7" d="M65.7,17.53a.3.3,0,0,1,0,.1.38.38,0,0,1-.37.29.38.38,0,0,1-.39-.39.39.39,0,0,1,.39-.39.38.38,0,0,1,.3.15A.36.36,0,0,1,65.7,17.53Z"/>
          </g>
          <g>
            <path class="cls-7" d="M71.58,14.12a1.8,1.8,0,0,0-1.79,1.8h.34a1.46,1.46,0,0,1,2.91,0,1.39,1.39,0,0,1-.08.46,1.43,1.43,0,0,1-.9.91,1.29,1.29,0,0,1-.39.08v.35a1.79,1.79,0,0,0,.46-.09,1.79,1.79,0,0,0,1.25-1.71A1.8,1.8,0,0,0,71.58,14.12Z"/>
            <path class="cls-7" d="M72.14,17.53a.31.31,0,0,1,0,.1.4.4,0,0,1-.38.29.39.39,0,0,1-.39-.39.4.4,0,0,1,.39-.39.39.39,0,0,1,.31.15A.41.41,0,0,1,72.14,17.53Z"/>
          </g>
        </g>
        <g>
          <path class="cls-12" d="M55.92,33.74H53.83a.56.56,0,0,1-.53-.44l-.4-2.1a.35.35,0,0,1,.35-.44h2.1a.55.55,0,0,1,.52.44l.41,2.1A.36.36,0,0,1,55.92,33.74Z"/>
          <path class="cls-12" d="M61.21,33.74H59.12a.56.56,0,0,1-.53-.44l-.4-2.1a.35.35,0,0,1,.35-.44h2.1a.55.55,0,0,1,.52.44l.41,2.1A.36.36,0,0,1,61.21,33.74Z"/>
          <path class="cls-7" d="M66.5,33.74H64.41a.56.56,0,0,1-.53-.44l-.4-2.1a.35.35,0,0,1,.35-.44h2.1a.55.55,0,0,1,.52.44l.41,2.1A.36.36,0,0,1,66.5,33.74Z"/>
          <path class="cls-12" d="M40.05,33.74H38a.57.57,0,0,1-.53-.44L37,31.2a.35.35,0,0,1,.35-.44h2.1a.57.57,0,0,1,.53.44l.4,2.1A.35.35,0,0,1,40.05,33.74Z"/>
          <path class="cls-11" d="M37.76,27.44h-.9a.24.24,0,0,1-.23-.18l-.17-.91a.15.15,0,0,1,.15-.18h.9a.25.25,0,0,1,.23.18l.17.91A.15.15,0,0,1,37.76,27.44Z"/>
          <path class="cls-12" d="M45.34,33.74H43.25a.57.57,0,0,1-.53-.44l-.4-2.1a.35.35,0,0,1,.35-.44h2.1a.57.57,0,0,1,.53.44l.4,2.1A.35.35,0,0,1,45.34,33.74Z"/>
          <path class="cls-12" d="M50.63,33.74H48.54A.56.56,0,0,1,48,33.3l-.4-2.1a.35.35,0,0,1,.35-.44h2.1a.55.55,0,0,1,.52.44L51,33.3A.35.35,0,0,1,50.63,33.74Z"/>
          <path class="cls-7" d="M71.79,33.74h-2.1a.56.56,0,0,1-.52-.44l-.41-2.1a.36.36,0,0,1,.36-.44h2.1a.55.55,0,0,1,.52.44l.41,2.1A.36.36,0,0,1,71.79,33.74Z"/>
          <path class="cls-12" d="M55,29.19H53a.57.57,0,0,1-.53-.45L52,26.65a.35.35,0,0,1,.35-.44h2.1a.57.57,0,0,1,.53.44l.4,2.09A.36.36,0,0,1,55,29.19Z"/>
          <path class="cls-12" d="M60.33,29.19H58.24a.57.57,0,0,1-.53-.45l-.4-2.09a.35.35,0,0,1,.35-.44h2.1a.57.57,0,0,1,.53.44l.4,2.09A.36.36,0,0,1,60.33,29.19Z"/>
          <path class="cls-7" d="M65.62,29.19H63.53a.56.56,0,0,1-.53-.45l-.4-2.09a.35.35,0,0,1,.35-.44h2.1a.55.55,0,0,1,.52.44L66,28.74A.36.36,0,0,1,65.62,29.19Z"/>
          <path class="cls-7" d="M70.91,29.19H68.82a.56.56,0,0,1-.53-.45l-.4-2.09a.35.35,0,0,1,.35-.44h2.1a.55.55,0,0,1,.52.44l.41,2.09A.37.37,0,0,1,70.91,29.19Z"/>
          <path class="cls-12" d="M56.85,38.56H54.76a.57.57,0,0,1-.53-.44L53.83,36a.35.35,0,0,1,.35-.44h2.1a.54.54,0,0,1,.52.44l.41,2.09A.35.35,0,0,1,56.85,38.56Z"/>
          <path class="cls-12" d="M62.14,38.56H60.05a.56.56,0,0,1-.53-.44L59.12,36a.35.35,0,0,1,.35-.44h2.1a.54.54,0,0,1,.52.44l.41,2.09A.35.35,0,0,1,62.14,38.56Z"/>
          <path class="cls-7" d="M67.43,38.56H65.34a.56.56,0,0,1-.53-.44L64.41,36a.35.35,0,0,1,.35-.44h2.1a.54.54,0,0,1,.52.44l.41,2.09A.36.36,0,0,1,67.43,38.56Z"/>
          <path class="cls-12" d="M41,38.56h-2.1a.57.57,0,0,1-.53-.44L38,36a.35.35,0,0,1,.36-.44h2.09a.56.56,0,0,1,.53.44l.4,2.09A.35.35,0,0,1,41,38.56Z"/>
          <path class="cls-12" d="M46.27,38.56H44.18a.57.57,0,0,1-.53-.44L43.25,36a.35.35,0,0,1,.35-.44h2.1a.56.56,0,0,1,.53.44l.4,2.09A.35.35,0,0,1,46.27,38.56Z"/>
          <path class="cls-12" d="M51.56,38.56H49.47a.57.57,0,0,1-.53-.44L48.54,36a.35.35,0,0,1,.35-.44H51a.56.56,0,0,1,.53.44l.4,2.09A.35.35,0,0,1,51.56,38.56Z"/>
          <path class="cls-7" d="M72.72,38.56H70.63a.56.56,0,0,1-.53-.44L69.7,36a.35.35,0,0,1,.35-.44h2.1a.54.54,0,0,1,.52.44l.41,2.09A.36.36,0,0,1,72.72,38.56Z"/>
          <path class="cls-12" d="M57.78,43.39H55.69a.57.57,0,0,1-.53-.44l-.4-2.1a.35.35,0,0,1,.35-.44h2.1a.57.57,0,0,1,.53.44l.4,2.1A.35.35,0,0,1,57.78,43.39Z"/>
          <path class="cls-12" d="M63.07,43.39H61a.57.57,0,0,1-.53-.44l-.4-2.1a.35.35,0,0,1,.35-.44h2.1a.55.55,0,0,1,.52.44l.41,2.1A.35.35,0,0,1,63.07,43.39Z"/>
          <path class="cls-7" d="M68.36,43.39H66.27a.56.56,0,0,1-.53-.44l-.4-2.1a.35.35,0,0,1,.35-.44h2.1a.55.55,0,0,1,.52.44l.41,2.1A.35.35,0,0,1,68.36,43.39Z"/>
          <path class="cls-12" d="M41.92,43.39h-2.1a.57.57,0,0,1-.53-.44l-.4-2.1a.35.35,0,0,1,.36-.44h2.09a.57.57,0,0,1,.53.44l.4,2.1A.35.35,0,0,1,41.92,43.39Z"/>
          <path class="cls-11" d="M47.21,43.39h-2.1a.57.57,0,0,1-.53-.44l-.4-2.1a.35.35,0,0,1,.36-.44h2.09a.57.57,0,0,1,.53.44l.4,2.1A.35.35,0,0,1,47.21,43.39Z"/>
          <path class="cls-12" d="M52.49,43.39H50.4a.57.57,0,0,1-.53-.44l-.4-2.1a.35.35,0,0,1,.35-.44h2.1a.57.57,0,0,1,.53.44l.4,2.1A.35.35,0,0,1,52.49,43.39Z"/>
          <path class="cls-7" d="M73.65,43.39H71.56A.56.56,0,0,1,71,43l-.4-2.1a.35.35,0,0,1,.35-.44h2.1a.55.55,0,0,1,.52.44L74,43A.36.36,0,0,1,73.65,43.39Z"/>
          <path class="cls-12" d="M58.66,47.94H56.57A.56.56,0,0,1,56,47.5l-.4-2.1A.35.35,0,0,1,56,45h2.1a.55.55,0,0,1,.52.44L59,47.5A.36.36,0,0,1,58.66,47.94Z"/>
          <path class="cls-12" d="M64,47.94H61.86a.56.56,0,0,1-.53-.44l-.4-2.1a.35.35,0,0,1,.35-.44h2.1a.55.55,0,0,1,.52.44l.41,2.1A.36.36,0,0,1,64,47.94Z"/>
          <path class="cls-7" d="M69.24,47.94h-2.1a.56.56,0,0,1-.52-.44l-.4-2.1a.35.35,0,0,1,.35-.44h2.1a.55.55,0,0,1,.52.44l.41,2.1A.36.36,0,0,1,69.24,47.94Z"/>
          <path class="cls-12" d="M42.79,47.94H40.7a.57.57,0,0,1-.53-.44l-.4-2.1a.35.35,0,0,1,.35-.44h2.1a.57.57,0,0,1,.53.44l.4,2.1A.35.35,0,0,1,42.79,47.94Z"/>
          <path class="cls-12" d="M48.08,47.94H46a.57.57,0,0,1-.53-.44l-.4-2.1a.35.35,0,0,1,.35-.44h2.1a.57.57,0,0,1,.53.44l.4,2.1A.35.35,0,0,1,48.08,47.94Z"/>
          <path class="cls-12" d="M53.37,47.94H51.28a.56.56,0,0,1-.53-.44l-.4-2.1A.35.35,0,0,1,50.7,45h2.1a.55.55,0,0,1,.52.44l.41,2.1A.35.35,0,0,1,53.37,47.94Z"/>
          <path class="cls-12" d="M44.11,26.62H38.56a.15.15,0,0,1-.15-.15h0a.15.15,0,0,1,.15-.15h5.55a.15.15,0,0,1,.15.15h0A.15.15,0,0,1,44.11,26.62Z"/>
          <path class="cls-12" d="M44.28,27.29H38.73a.15.15,0,0,1-.15-.15h0a.15.15,0,0,1,.15-.15h5.55a.15.15,0,0,1,.15.15h0A.15.15,0,0,1,44.28,27.29Z"/>
        </g>
        <g>
          <path class="cls-13" d="M38.15,21.61h-1.9a.28.28,0,0,1-.28-.28h0a.28.28,0,0,1,.28-.29h1.9a.29.29,0,0,1,.29.29h0A.29.29,0,0,1,38.15,21.61Z"/>
          <path class="cls-13" d="M43.38,21.61h-1.9a.29.29,0,0,1-.29-.28h0a.29.29,0,0,1,.29-.29h1.9a.29.29,0,0,1,.29.29h0A.29.29,0,0,1,43.38,21.61Z"/>
          <path class="cls-13" d="M48.61,21.61h-1.9a.29.29,0,0,1-.29-.28h0a.29.29,0,0,1,.29-.29h1.9a.29.29,0,0,1,.29.29h0A.29.29,0,0,1,48.61,21.61Z"/>
          <path class="cls-13" d="M53.84,21.61h-1.9a.29.29,0,0,1-.29-.28h0a.29.29,0,0,1,.29-.29h1.9a.29.29,0,0,1,.29.29h0A.29.29,0,0,1,53.84,21.61Z"/>
          <path class="cls-13" d="M59.07,21.61H57.16a.29.29,0,0,1-.28-.28h0a.29.29,0,0,1,.28-.29h1.91a.28.28,0,0,1,.28.29h0A.28.28,0,0,1,59.07,21.61Z"/>
          <path class="cls-13" d="M64.3,21.61H62.39a.29.29,0,0,1-.28-.28h0a.29.29,0,0,1,.28-.29H64.3a.28.28,0,0,1,.28.29h0A.28.28,0,0,1,64.3,21.61Z"/>
          <path class="cls-13" d="M69.53,21.61H67.62a.29.29,0,0,1-.28-.28h0a.29.29,0,0,1,.28-.29h1.91a.29.29,0,0,1,.28.29h0A.29.29,0,0,1,69.53,21.61Z"/>
        </g>
        <path class="cls-14" d="M57.48,29.23a1,1,0,0,1-.9-.4c-.32-.49-.07-1.19.74-2.07a10.37,10.37,0,0,1,1.28-1.15.07.07,0,0,1,.09,0,.07.07,0,0,1,0,.09s-2.68,2-2,3.06a1.07,1.07,0,0,0,1,.32A5.71,5.71,0,0,0,60,28.14a3.87,3.87,0,0,0,1.56-1.65c.12-.34.08-.58-.11-.72a1.91,1.91,0,0,0-1.4,0,4.49,4.49,0,0,0-1.58.78.07.07,0,0,1-.09,0,.06.06,0,0,1,0-.09A4.64,4.64,0,0,1,60,25.65a2,2,0,0,1,1.51,0c.17.12.33.36.16.86a4.08,4.08,0,0,1-1.61,1.71,5.79,5.79,0,0,1-2.35,1Z"/>
        <g>
          <path class="cls-15" d="M68.48,25.77l-.22-.41a1.21,1.21,0,0,0-.8-1.18.44.44,0,0,0-.52.13c-.18.25.33.21.3.63a.79.79,0,0,0,.46.82l.23.27Z"/>
          <path class="cls-16" d="M77.09,24.8A7.2,7.2,0,0,1,72,29.89c-1.34.39-4.4-4-4.4-4s.11-.41.78-.32c0,0,3,2,3.35,2.19s2.52-2.44,3.51-2.87A2.55,2.55,0,0,1,77.09,24.8Z"/>
          <g>
            <rect class="cls-14" x="66.45" y="22.38" width="0.95" height="4.77" transform="translate(54.77 95.08) rotate(-100.49)"/>
            <polygon class="cls-15" points="63.49 25.39 64.67 25.66 64.5 24.73 63.49 25.39"/>
            <path class="cls-15" d="M69.79,24.07l0,.29a.32.32,0,0,1-.26.39l-.22,0-.17-.93.23,0A.31.31,0,0,1,69.79,24.07Z"/>
          </g>
          <g>
            <path class="cls-16" d="M82.23,48.94s.54.49.43.83-.58.58-.65,1-.33.66-.56.66H80.33s-.17-.3.25-.39.57-.59.54-1a9.46,9.46,0,0,1,0-1.08l.89-.2Z"/>
            <path class="cls-16" d="M75.68,50.2s.09,1.11-.14,1.23h-3s0-.35.48-.42,1.33-.36,1.47-1S75.68,50.2,75.68,50.2Z"/>
            <path class="cls-11" d="M73.14,34.53s.16,1.94.35,4.28c.25,3.18.55,7.08.58,7.82.06,1.28.27,3.33.27,3.33a1.63,1.63,0,0,0,1.48.28,33.66,33.66,0,0,0,1.14-6v-.15c.23-3.16.6-9.8.6-9.8Z"/>
            <path class="cls-4" d="M73.14,34.53s.16,1.94.35,4.28L77,44.21v-.15c.23-3.16.6-9.8.6-9.8Z"/>
            <path class="cls-11" d="M73.87,34.76s2.85,7,4.73,10.35,2.46,4.24,2.46,4.24,1.07-.43,1.17-.72c0,0-.72-6.39-2-7.94a11.66,11.66,0,0,1-1.59-4.45c0-.92-.25-2.75-.25-2.75Z"/>
          </g>
          <path class="cls-15" d="M77.62,23.9s-1.93.94-3,.59a2.46,2.46,0,0,1,.75-.6c0-.23-.07-.42-.09-.58,0-.38,0-.6,0-.6l.74-.58.71-.57A2.83,2.83,0,0,0,77.62,23.9Z"/>
          <path class="cls-17" d="M73,34.69a.17.17,0,0,0,.12,0,16.87,16.87,0,0,0,2.67.12,7.63,7.63,0,0,0,2.47-.7c.11,0,.36-.18.36-.3s0-.32,0-.57c0-.48-.08-1.16-.09-2,0-.6,0-1.27,0-2a.66.66,0,0,0,0-.14c0-.26,0-.52,0-.78a13.92,13.92,0,0,0-.18-2.32,4.11,4.11,0,0,0-1.18-2.6c-.08-.06-.56.17-1,.38A1.89,1.89,0,0,1,75,24l-.39.33a3.86,3.86,0,0,0-1.2,1.9,20.88,20.88,0,0,0-.36,3.52C73,30.4,73,31,73,31.65v0a1.21,1.21,0,0,0,0,.19C73,33.42,73,34.67,73,34.69Z"/>
          <path class="cls-18" d="M76.66,22.17a2.57,2.57,0,0,1-1.42,1.14c0-.38,0-.6,0-.6l.74-.58Z"/>
          <path class="cls-15" d="M74.86,22.69s1.84.3,2-.84.53-1.85-.64-2.09-1.46.16-1.61.52S74.38,22.58,74.86,22.69Z"/>
          <path class="cls-19" d="M77.54,19.62s.06,0,.14,0a.36.36,0,0,0-.16,0,.42.42,0,0,0-.28-.38.25.25,0,0,1,.12.18c-.24-.24-.75-.42-2.16-.31-1.86.15-1.25,1.34-1,1.48s.84-.25,1.29-.21.54.68.69.77.09-.07.3-.16.22.25.16.47.23.52.23.52l.28-.31a3.18,3.18,0,0,0,.43-1.89Z"/>
          <path class="cls-15" d="M68.26,25.34s.06-.25-.11-.36-.34-.42-.41-.38.08.36,0,.69C67.77,25.41,68,25.71,68.26,25.34Z"/>
          <path class="cls-16" d="M78.51,31.3c0-.6,0-1.27,0-2a.66.66,0,0,0,0-.14c-.17-.87-.44-1.64-.83-1.66A3,3,0,0,0,78.51,31.3Z"/>
          <path class="cls-15" d="M80,34.45a6.37,6.37,0,0,1-.2,1.12,4.1,4.1,0,0,1-.75.86c-.2.11.11-.75.08-.92s-.16.31-.25.32-.06-.42-.06-.57.41-.54.56-.87S80,34.45,80,34.45Z"/>
          <path class="cls-17" d="M77.21,23.47a4.86,4.86,0,0,1,1.72,1.4c.87,1.31,1.87,6.11,1.89,6.55S80.09,35,80.09,35s-.76,0-1-.43c0,0,.15-3.22.05-3.43s-3.17-4.32-2.83-5.2S77.21,23.47,77.21,23.47Z"/>
          <polygon class="cls-14" points="64.1 24.99 64.16 25.54 63.49 25.39 64.1 24.99"/>
        </g>
        <path class="cls-3" d="M89.31,51.41H86c-.18-.15.12-.5.44-.52a2.05,2.05,0,0,1,.51.06c0-.61.31-3.37,1.31-3.26s0,1.21-.32,1.86A15.09,15.09,0,0,0,87.31,51l.28.05c.15-.45.7-2,1.4-1.89s.49.71-.09,1.08-1,.65-1.21.83a2.89,2.89,0,0,0,.66,0A1.39,1.39,0,0,1,89.31,51.41Z"/>
        <path class="cls-3" d="M12.65,51.25c-.18-.28-.71-1-1.43-.91s.86.62,1.36.91a.56.56,0,0,1-.27,0,1.9,1.9,0,0,0-1.1.19H14.4a.51.51,0,0,0-.23-.29.56.56,0,0,0-.29,0c.19-.22.32-.93-.21-.75s-.38.57-.34.83l-.25,0c-.16-.81-.72-3.18-1.86-3.25s1,2.46,1.69,3.27Z"/>
        <rect class="cls-20" y="51.38" width="100" height="0.27" rx="0.11"/>
      </g>
    </g>
  </g>
</svg>
